<mxfile host="app.diagrams.net" modified="2023-12-20T10:00:00.669Z" agent="Mozilla/5.0 (Windows NT 10.0; Win64; x64) AppleWebKit/537.36 (KHTML, like Gecko) Chrome/120.0.0.0 Safari/537.36" etag="L1WQ40UakpRdSkyRsbdb" version="22.1.11" type="device">
  <diagram name="Page-1" id="2YBvvXClWsGukQMizWep">
    <mxGraphModel dx="1024" dy="533" grid="1" gridSize="10" guides="1" tooltips="1" connect="1" arrows="1" fold="1" page="1" pageScale="1" pageWidth="850" pageHeight="1100" math="0" shadow="0">
      <root>
        <mxCell id="0" />
        <mxCell id="1" parent="0" />
        <mxCell id="aM9ryv3xv72pqoxQDRHE-1" value=":Installer" style="shape=umlLifeline;perimeter=lifelinePerimeter;whiteSpace=wrap;html=1;container=0;dropTarget=0;collapsible=0;recursiveResize=0;outlineConnect=0;portConstraint=eastwest;newEdgeStyle={&quot;edgeStyle&quot;:&quot;elbowEdgeStyle&quot;,&quot;elbow&quot;:&quot;vertical&quot;,&quot;curved&quot;:0,&quot;rounded&quot;:0};" parent="1" vertex="1">
          <mxGeometry x="200" y="40" width="100" height="360" as="geometry" />
        </mxCell>
        <mxCell id="qGcuKTKg4TYZmEAxyRqr-1" style="edgeStyle=elbowEdgeStyle;rounded=0;orthogonalLoop=1;jettySize=auto;html=1;elbow=vertical;curved=0;dashed=1;" edge="1" parent="aM9ryv3xv72pqoxQDRHE-1">
          <mxGeometry relative="1" as="geometry">
            <mxPoint x="-126" y="110" as="targetPoint" />
            <mxPoint x="49" y="109.9655172413793" as="sourcePoint" />
          </mxGeometry>
        </mxCell>
        <mxCell id="qGcuKTKg4TYZmEAxyRqr-2" value="request info" style="edgeLabel;html=1;align=center;verticalAlign=middle;resizable=0;points=[];" vertex="1" connectable="0" parent="qGcuKTKg4TYZmEAxyRqr-1">
          <mxGeometry x="0.1135" y="-1" relative="1" as="geometry">
            <mxPoint x="4" y="-8" as="offset" />
          </mxGeometry>
        </mxCell>
        <mxCell id="aM9ryv3xv72pqoxQDRHE-2" value="" style="html=1;points=[];perimeter=orthogonalPerimeter;outlineConnect=0;targetShapes=umlLifeline;portConstraint=eastwest;newEdgeStyle={&quot;edgeStyle&quot;:&quot;elbowEdgeStyle&quot;,&quot;elbow&quot;:&quot;vertical&quot;,&quot;curved&quot;:0,&quot;rounded&quot;:0};" parent="aM9ryv3xv72pqoxQDRHE-1" vertex="1">
          <mxGeometry x="45" y="70" width="10" height="290" as="geometry" />
        </mxCell>
        <mxCell id="aM9ryv3xv72pqoxQDRHE-5" value=":Monitor" style="shape=umlLifeline;perimeter=lifelinePerimeter;whiteSpace=wrap;html=1;container=0;dropTarget=0;collapsible=0;recursiveResize=0;outlineConnect=0;portConstraint=eastwest;newEdgeStyle={&quot;edgeStyle&quot;:&quot;elbowEdgeStyle&quot;,&quot;elbow&quot;:&quot;vertical&quot;,&quot;curved&quot;:0,&quot;rounded&quot;:0};" parent="1" vertex="1">
          <mxGeometry x="360" y="40" width="100" height="300" as="geometry" />
        </mxCell>
        <mxCell id="qGcuKTKg4TYZmEAxyRqr-5" value="" style="html=1;points=[];perimeter=orthogonalPerimeter;outlineConnect=0;targetShapes=umlLifeline;portConstraint=eastwest;newEdgeStyle={&quot;edgeStyle&quot;:&quot;elbowEdgeStyle&quot;,&quot;elbow&quot;:&quot;vertical&quot;,&quot;curved&quot;:0,&quot;rounded&quot;:0};" vertex="1" parent="aM9ryv3xv72pqoxQDRHE-5">
          <mxGeometry x="45" y="135" width="10" height="80" as="geometry" />
        </mxCell>
        <mxCell id="aM9ryv3xv72pqoxQDRHE-10" value="installs" style="html=1;verticalAlign=bottom;endArrow=open;dashed=1;endSize=8;edgeStyle=elbowEdgeStyle;elbow=vertical;curved=0;rounded=0;" parent="1" edge="1">
          <mxGeometry x="0.3522" y="-1" relative="1" as="geometry">
            <mxPoint x="573" y="202" as="targetPoint" />
            <Array as="points">
              <mxPoint x="340" y="202" />
            </Array>
            <mxPoint x="255" y="202" as="sourcePoint" />
            <mxPoint as="offset" />
          </mxGeometry>
        </mxCell>
        <mxCell id="ZfkN1Lk-7HepPn44YQTx-6" value="" style="edgeStyle=none;rounded=0;html=1;jettySize=auto;orthogonalLoop=1;strokeColor=#404040;strokeWidth=1;fontColor=#000000;jumpStyle=none;endArrow=none;endFill=0;startArrow=none;dashed=1;" parent="1" edge="1">
          <mxGeometry width="100" relative="1" as="geometry">
            <mxPoint x="74" y="90" as="sourcePoint" />
            <mxPoint x="74" y="400" as="targetPoint" />
          </mxGeometry>
        </mxCell>
        <mxCell id="ZfkN1Lk-7HepPn44YQTx-5" value="Actor" style="shape=umlActor;verticalLabelPosition=bottom;verticalAlign=top;html=1;outlineConnect=0;" parent="1" vertex="1">
          <mxGeometry x="59" y="10" width="30" height="60" as="geometry" />
        </mxCell>
        <mxCell id="ZfkN1Lk-7HepPn44YQTx-7" value=":Alarm" style="shape=umlLifeline;perimeter=lifelinePerimeter;whiteSpace=wrap;html=1;container=0;dropTarget=0;collapsible=0;recursiveResize=0;outlineConnect=0;portConstraint=eastwest;newEdgeStyle={&quot;edgeStyle&quot;:&quot;elbowEdgeStyle&quot;,&quot;elbow&quot;:&quot;vertical&quot;,&quot;curved&quot;:0,&quot;rounded&quot;:0};" parent="1" vertex="1">
          <mxGeometry x="697" y="40" width="100" height="360" as="geometry" />
        </mxCell>
        <mxCell id="ZfkN1Lk-7HepPn44YQTx-18" style="edgeStyle=elbowEdgeStyle;rounded=0;orthogonalLoop=1;jettySize=auto;html=1;elbow=vertical;curved=0;dashed=1;" parent="ZfkN1Lk-7HepPn44YQTx-7" edge="1">
          <mxGeometry relative="1" as="geometry">
            <mxPoint x="-623" y="361" as="targetPoint" />
            <mxPoint x="49" y="359.1578947368421" as="sourcePoint" />
          </mxGeometry>
        </mxCell>
        <mxCell id="ZfkN1Lk-7HepPn44YQTx-19" value="sends warning e-mail" style="edgeLabel;html=1;align=center;verticalAlign=middle;resizable=0;points=[];" parent="ZfkN1Lk-7HepPn44YQTx-18" vertex="1" connectable="0">
          <mxGeometry x="-0.1974" y="1" relative="1" as="geometry">
            <mxPoint y="-10" as="offset" />
          </mxGeometry>
        </mxCell>
        <mxCell id="ZfkN1Lk-7HepPn44YQTx-8" value="" style="html=1;points=[];perimeter=orthogonalPerimeter;outlineConnect=0;targetShapes=umlLifeline;portConstraint=eastwest;newEdgeStyle={&quot;edgeStyle&quot;:&quot;elbowEdgeStyle&quot;,&quot;elbow&quot;:&quot;vertical&quot;,&quot;curved&quot;:0,&quot;rounded&quot;:0};" parent="ZfkN1Lk-7HepPn44YQTx-7" vertex="1">
          <mxGeometry x="45" y="200" width="10" height="160" as="geometry" />
        </mxCell>
        <mxCell id="ZfkN1Lk-7HepPn44YQTx-9" value="execute" style="html=1;verticalAlign=bottom;endArrow=block;edgeStyle=elbowEdgeStyle;elbow=vertical;curved=0;rounded=0;" parent="1" edge="1">
          <mxGeometry relative="1" as="geometry">
            <mxPoint x="74" y="111" as="sourcePoint" />
            <Array as="points">
              <mxPoint x="159" y="111" />
            </Array>
            <mxPoint x="244" y="111" as="targetPoint" />
          </mxGeometry>
        </mxCell>
        <mxCell id="ZfkN1Lk-7HepPn44YQTx-11" value=":Dashboard" style="shape=umlLifeline;perimeter=lifelinePerimeter;whiteSpace=wrap;html=1;container=0;dropTarget=0;collapsible=0;recursiveResize=0;outlineConnect=0;portConstraint=eastwest;newEdgeStyle={&quot;edgeStyle&quot;:&quot;elbowEdgeStyle&quot;,&quot;elbow&quot;:&quot;vertical&quot;,&quot;curved&quot;:0,&quot;rounded&quot;:0};" parent="1" vertex="1">
          <mxGeometry x="528" y="41" width="100" height="360" as="geometry" />
        </mxCell>
        <mxCell id="ZfkN1Lk-7HepPn44YQTx-12" value="" style="html=1;points=[];perimeter=orthogonalPerimeter;outlineConnect=0;targetShapes=umlLifeline;portConstraint=eastwest;newEdgeStyle={&quot;edgeStyle&quot;:&quot;elbowEdgeStyle&quot;,&quot;elbow&quot;:&quot;vertical&quot;,&quot;curved&quot;:0,&quot;rounded&quot;:0};" parent="ZfkN1Lk-7HepPn44YQTx-11" vertex="1">
          <mxGeometry x="45" y="160" width="10" height="200" as="geometry" />
        </mxCell>
        <mxCell id="ZfkN1Lk-7HepPn44YQTx-13" value="installs &amp;amp; starts" style="html=1;verticalAlign=bottom;endArrow=open;dashed=1;endSize=8;edgeStyle=elbowEdgeStyle;elbow=vertical;curved=0;rounded=0;" parent="1" edge="1">
          <mxGeometry relative="1" as="geometry">
            <mxPoint x="739" y="240" as="targetPoint" />
            <Array as="points">
              <mxPoint x="339" y="240" />
            </Array>
            <mxPoint x="259" y="240" as="sourcePoint" />
          </mxGeometry>
        </mxCell>
        <mxCell id="ZfkN1Lk-7HepPn44YQTx-14" value="displays data" style="html=1;verticalAlign=bottom;endArrow=block;edgeStyle=elbowEdgeStyle;elbow=vertical;curved=0;rounded=0;" parent="1" edge="1">
          <mxGeometry relative="1" as="geometry">
            <mxPoint x="572" y="344" as="sourcePoint" />
            <Array as="points" />
            <mxPoint x="72" y="344" as="targetPoint" />
          </mxGeometry>
        </mxCell>
        <mxCell id="ZfkN1Lk-7HepPn44YQTx-15" value="filters data" style="html=1;verticalAlign=bottom;endArrow=block;edgeStyle=elbowEdgeStyle;elbow=vertical;curved=0;rounded=0;dashed=1;" parent="1" edge="1">
          <mxGeometry relative="1" as="geometry">
            <mxPoint x="73" y="374" as="sourcePoint" />
            <Array as="points">
              <mxPoint x="168" y="374" />
            </Array>
            <mxPoint x="576.5" y="373.9999999999999" as="targetPoint" />
          </mxGeometry>
        </mxCell>
        <mxCell id="qGcuKTKg4TYZmEAxyRqr-3" value="provides info" style="html=1;verticalAlign=bottom;endArrow=block;edgeStyle=elbowEdgeStyle;elbow=vertical;curved=0;rounded=0;" edge="1" parent="1">
          <mxGeometry relative="1" as="geometry">
            <mxPoint x="75" y="179" as="sourcePoint" />
            <Array as="points">
              <mxPoint x="160" y="179" />
            </Array>
            <mxPoint x="245" y="179" as="targetPoint" />
          </mxGeometry>
        </mxCell>
        <mxCell id="qGcuKTKg4TYZmEAxyRqr-4" value="installs &amp;amp; starts" style="html=1;verticalAlign=bottom;endArrow=open;dashed=1;endSize=8;edgeStyle=elbowEdgeStyle;elbow=vertical;curved=0;rounded=0;" edge="1" parent="1">
          <mxGeometry relative="1" as="geometry">
            <mxPoint x="405" y="176" as="targetPoint" />
            <Array as="points">
              <mxPoint x="335" y="176" />
            </Array>
            <mxPoint x="255" y="176" as="sourcePoint" />
          </mxGeometry>
        </mxCell>
        <mxCell id="qGcuKTKg4TYZmEAxyRqr-12" value="data request" style="html=1;verticalAlign=bottom;endArrow=block;edgeStyle=elbowEdgeStyle;elbow=vertical;curved=0;rounded=0;" edge="1" parent="1">
          <mxGeometry relative="1" as="geometry">
            <mxPoint x="74" y="312" as="sourcePoint" />
            <Array as="points">
              <mxPoint x="159" y="312" />
            </Array>
            <mxPoint x="577.5" y="311.9999999999999" as="targetPoint" />
          </mxGeometry>
        </mxCell>
        <mxCell id="qGcuKTKg4TYZmEAxyRqr-13" style="edgeStyle=elbowEdgeStyle;rounded=0;orthogonalLoop=1;jettySize=auto;html=1;elbow=vertical;curved=0;dashed=1;" edge="1" parent="1">
          <mxGeometry relative="1" as="geometry">
            <mxPoint x="255" y="279.8571428571429" as="sourcePoint" />
            <mxPoint x="746.5" y="279.8571428571429" as="targetPoint" />
          </mxGeometry>
        </mxCell>
        <mxCell id="qGcuKTKg4TYZmEAxyRqr-14" value="sends log files" style="edgeLabel;html=1;align=center;verticalAlign=middle;resizable=0;points=[];" vertex="1" connectable="0" parent="qGcuKTKg4TYZmEAxyRqr-13">
          <mxGeometry x="-0.1123" y="1" relative="1" as="geometry">
            <mxPoint y="-7" as="offset" />
          </mxGeometry>
        </mxCell>
      </root>
    </mxGraphModel>
  </diagram>
</mxfile>
